# xmcd
#
# Track frame offsets: 
#        150
#        15565
#        29130
#        46211
#        68892
#        88879
#        110803
#        128292
#        144031
#        158013
#        169722
#        190854
#        209472
#
# Disc length: 3080 seconds
#
# Revision: 4
# Processed by: cddbd v1.5.1PL0 Copyright (c) Steve Scherf et al.
# Submitted via: ExactAudioCopy v0.95a5
#
DISCID=ac0c060d
DTITLE=Monte Montgomery - The Story Of Love
DYEAR=2003
DGENRE=Blues
TTITLE0=Come Away
TTITLE1=I Can't Hide
TTITLE2=Secretly Waiting
TTITLE3=One Good Reason
TTITLE4=The Story Of Love
TTITLE5=I See You Everywhere
TTITLE6=Shock
TTITLE7=Whatever It Takes
TTITLE8=You Don't Need A Reason
TTITLE9=You're Still Gone
TTITLE10=Love's Finest Hour
TTITLE11=The Way Things Shouldn't Be
TTITLE12=My Mother's Hands
EXTD=YEAR: 2003
EXTT0=
EXTT1=
EXTT2=
EXTT3=
EXTT4=
EXTT5=
EXTT6=
EXTT7=
EXTT8=
EXTT9=
EXTT10=
EXTT11=
EXTT12=
PLAYORDER=
